<svg viewBox="0 0 320 360" height="360" width="320"><g><svg></svg></g><g><svg viewBox="0 0 320 360" height="360" width="320"><g><path xmlns="http://www.w3.org/2000/svg" d="M20.961 227.22l3.726 4.658-1.863-6.056c-0.466-2.795-3.726 0.466-1.863 1.398M25.153 224.425c1.397 2.329 2.795 4.658 2.795 6.987 0 3.261 2.795 4.658 5.123 5.589-3.261-3.726-5.124-13.974-7.918-12.576M204.017 26.929c7.918 0 15.371-0.932 23.756 0.931 20.495 5.124 37.729 15.371 49.374 29.811l32.606 52.169c1.397 13.042 4.192 27.482 3.726 43.319 3.261 0 2.795-4.658 6.521-5.59-3.726 9.316-5.59 20.961-6.521 34.469-2.329-7.453 0-18.632 0.466-24.687-3.261 5.124-5.124 1.397-5.124-0.932 0.466-3.726-1.397-3.261-2.795-4.658-5.124-4.658-8.384-9.782-12.11-17.7 2.329-6.055 2.795-14.905-4.658-19.563-2.329-1.397-5.124-3.726-6.521-7.453-1.863-5.124-5.124-11.179-4.193-19.097 0.466-2.329-6.987 5.124-11.179 1.863-18.166-12.576-36.332-27.016-58.224-39.127-11.645 0-20.029-4.192-24.221-9.316-3.726-4.658-0.932-10.713 4.658-11.179 3.261 0 6.987-0.932 9.782 0.932 0.466-1.863 2.329-4.192 4.657-4.192M157.904 16.215l0.932 0.466c4.658 0.932 6.987 7.453 12.11 5.124 0 3.261 0.466 6.521-0.466 8.85-1.397 3.726-5.59 3.726-8.85 3.726-31.208-1.863-49.374 11.179-68.471 22.358-5.124 3.261-10.713 5.59-14.906 9.782-20.029 18.632-41.921 35.866-47.045 70.335l-4.192 38.195c-0.466 4.192-5.124 8.384-4.192 13.508l3.26 22.824c-3.261-3.261-5.124 0.932-4.192 2.795 0.466 1.397 2.329 6.055 5.124 1.863 3.726 6.987 7.453 20.495 12.576 26.55 15.837 18.632 36.332 35.4 53.101 52.169 4.192-0.932 7.453-0.932 8.384-3.727 1.397 2.795-1.397 5.59-3.726 6.056 7.453 4.658 15.837 8.85 27.016 9.781 14.44 0.932 27.948 3.261 40.524 6.522 6.521-1.863 13.042-2.795 20.029-3.261 2.329 0 3.726-3.726 6.521-4.658l0.466-4.658c2.795 4.192 2.329-1.397 0.466-4.192 3.261 2.795 4.192 5.124 5.589 6.987 0-1.397 3.726-6.521 3.727-0.466l0.931-6.055c1.397-0.932 1.863 5.124 3.261 0.931 1.397-4.192 4.192-0.932 6.987-2.329-0.932 1.863-0.466 5.59 2.794 3.261l3.727-3.261c2.329 5.59 6.055 3.261 7.918 2.329 20.495-13.042 40.99-28.413 60.553-43.784l-0.466 6.055 2.329-7.453c2.329 2.329 4.192 0.466 5.124-0.931 2.795-4.658 6.521-9.316 12.577-13.508-7.453 20.029-16.303 35.866-27.482 48.908l-4.658 5.59c0 3.261-0.932 7.453-4.658 7.918-1.863 0.466-5.59-0.932-8.384 1.863-1.397 1.863 3.261 5.59-0.466 2.795-3.261-2.329-6.521 0-10.248 0.932-2.795 0.932 1.863 3.726 2.795 5.589 0.932 1.863 1.863 3.726 1.398 6.056l-5.124-5.59c-6.055 3.261-9.782 9.316-14.906 13.974-2.329 1.863-1.397 5.124-1.397 7.918-3.261 0-6.987-0.932-8.85 0.932-1.397 1.863-0.932 4.658-0.932 7.453-4.658-0.466-5.124-7.453-9.315-6.056-4.192 0.932-8.85 1.397-12.577 3.727 2.795 5.59-4.658 2.329-3.726 3.26-6.987-4.192-13.042-7.453-20.495-4.658-15.837-5.124-35.4-2.795-49.84-0.931 0-2.329 0.466-4.658-0.466-5.124-0.932 2.329-3.726 1.397-3.26 1.397-8.85-6.055-17.7-9.782-27.016-14.905-8.384 0.932-16.303-3.261-18.632-5.59-6.521-6.055-13.974-2.795-20.029-4.192-13.042-3.261-17.7-16.769-19.098-26.084-0.932-4.658-4.658-6.521-6.055-6.056-6.055-19.563-15.371-37.263-22.824-55.429-1.863-4.658-1.397-9.316-1.397-14.44 2.329 0.932 4.658 0.466 4.192-2.794-2.329-15.371-7.918-27.016-13.974-38.195 3.261-15.837 3.726-34.469 11.179-48.443 6.521-12.576 18.632-19.098 27.016-29.811 2.795-3.726 2.795-8.85 5.59-12.11 9.316-9.316 18.632-19.098 28.879-27.482 4.658-3.726 10.247 0 17.234-1.397 2.329-8.384 11.645-15.837 20.495-13.508 3.726 0.932 11.179-8.85 13.508-9.782 3.726-1.397 1.863 3.726 1.863 6.987 8.85-6.987 20.961-10.713 32.14-14.906" fill="#d2dbc8" fill-rule="nonzero" stroke="none" stroke-width="1" stroke-linecap="butt" stroke-linejoin="miter" stroke-miterlimit="10" stroke-dasharray="" stroke-dashoffset="0" font-family="none" font-weight="none" font-size="none" text-anchor="none" style="mix-blend-mode: normal" data-fill-palette-color="tertiary"></path></g><g transform="matrix(1,0,0,1,112.88107360477862,90)"><svg viewBox="0 0 94.23785279044276 180" height="180" width="94.23785279044276"><g><svg viewBox="0 0 94.23785279044276 180" height="180" width="94.23785279044276"><g><svg viewBox="0 0 159.64137931034483 304.9246924137931" height="180" width="94.23785279044276"><g transform="matrix(1,0,0,1,0,124.92469241379311)"><svg viewBox="0 0 159.64137931034483 180" height="180" width="159.64137931034483"><g id="textblocktransform"><svg viewBox="0 0 159.64137931034483 180" height="180" width="159.64137931034483" id="textblock"><g><svg viewBox="0 0 159.64137931034483 180" height="180" width="159.64137931034483"><g transform="matrix(1,0,0,1,0,0)"><svg width="159.64137931034483" viewBox="1.4200000762939453 -34.90999984741211 31.39000129699707 35.400001525878906" height="180" data-palette-color="#d2dbc8"><path d="M15.04 0.49L15.04 0.49Q8.96 0.49 5.6-1.67 2.25-3.83 1.42-8.25L1.42-8.25 5.74-9.16Q6.4-6.01 8.67-4.59 10.94-3.17 15.38-3.17L15.38-3.17Q20.73-3.17 23.19-4.77 25.66-6.37 25.66-9.67L25.66-9.67Q25.66-11.3 24.95-12.29 24.24-13.28 22.53-14.09L22.53-14.09Q21.68-14.48 20.21-14.97 18.75-15.45 16.65-16.04L16.65-16.04Q12.55-17.16 10.42-18.41L10.42-18.41Q8.35-19.63 7.29-21.33 6.23-23.02 6.23-25.42L6.23-25.42Q6.23-28.39 7.92-30.52 9.62-32.64 12.74-33.78 15.87-34.91 20.12-34.91L20.12-34.91Q25.49-34.91 28.74-33.06 31.98-31.2 32.81-27.64L32.81-27.64 28.59-26.39Q27.78-28.96 25.7-30.18 23.61-31.4 20.09-31.4L20.09-31.4Q15.5-31.4 13.21-29.96 10.91-28.52 10.91-25.63L10.91-25.63Q10.91-24.17 11.55-23.25 12.18-22.34 13.6-21.63L13.6-21.63Q14.31-21.29 15.72-20.81 17.14-20.34 19.26-19.78L19.26-19.78Q21.66-19.12 23.36-18.48 25.07-17.85 26.12-17.24L26.12-17.24Q28.22-16.02 29.32-14.27 30.42-12.52 30.42-9.96L30.42-9.96Q30.42-4.93 26.64-2.22 22.85 0.49 15.04 0.49Z" opacity="1" transform="matrix(1,0,0,1,0,0)" fill="#d2dbc8" class="wordmark-text-0" data-fill-palette-color="primary" id="text-0"></path></svg></g></svg></g></svg></g></svg></g><g transform="matrix(1,0,0,1,30.491503448275864,0)"><svg viewBox="0 0 98.6583724137931 98.6583724137931" height="98.6583724137931" width="98.6583724137931"><g><svg xmlns="http://www.w3.org/2000/svg" xmlns:xlink="http://www.w3.org/1999/xlink" version="1.1" x="0" y="0" viewBox="5 5 90 90" enable-background="new 0 0 100 100" xml:space="preserve" height="98.6583724137931" width="98.6583724137931" class="icon-icon-0" data-fill-palette-color="accent" id="icon-0"><path d="M50 5C25.2 5 5 25.2 5 50S25.2 95 50 95 95 74.8 95 50 74.8 5 50 5M72.3 45.5C71.9 34.5 69.7 25 66.1 17.9 76.6 23.2 84.1 33.4 85.6 45.5zM33.8 17.9C30.3 25 28 34.5 27.6 45.5H14.3C15.9 33.4 23.4 23.2 33.8 17.9M27.7 54.5C28.3 65.8 30.9 75.6 35 82.6 23.9 77.6 16 67 14.3 54.5zM50 84.5C44.9 84.5 37.8 73.2 36.7 54.5H63.3C62.1 73.3 55.1 84.5 50 84.5M36.6 45.5C37.4 25.9 44.7 14 50 14S62.5 25.9 63.4 45.5zM65 82.6C69 75.6 71.7 65.8 72.2 54.5H85.6C84 67 76 77.6 65 82.6" fill="#f8f8ec" data-fill-palette-color="accent"></path></svg></g></svg></g><g></g></svg></g></svg></g></svg></g></svg></g><defs></defs></svg>